<svg xmlns="http://www.w3.org/2000/svg" width="95" height="32" aria-label="FABRIC"><path fill="#ecebe6" shape-rendering="crispEdges" d="M0 0h95v32H0z"/><g fill="#fff" text-anchor="middle" font-family="Verdana,Geneva,DejaVu Sans,sans-serif" text-rendering="geometricPrecision" font-size="100"><path fill="#38342a" d="M18 10h1v1h-1zm-1 1h1v1h-1zm2 0h1v1h-1zm-2 1h1v1h-1zm3 0h1v1h-1zm-4 1h1v1h-1zm2 0h1v1h-1zm3 0h1v1h-1zm-6 1h1v1h-1zm4 0h1v1h-1zm3 0h1v1h-1zm-8 1h1v1h-1zm6 0h1v1h-1zm2 0h1v1h-1zm1 0h1v1h-1zm-10 1h1v1h-1zm8 0h1v1h-1zm2 0h1v1h-1zm-11 1h1v1h-1zm9 0h1v1h-1zm1 0h1v1h-1zm-11 1h1v1h-1zm9 0h1v1h-1zm-9 1h1v1h-1zm8 0h1v1h-1zm-7 1h1v1h-1zm6 0h1v1h-1zm-5 1h1v1h-1zm4 0h1v1h-1zm-3 1h1v1h-1zm2 0h1v1h-1zm1 0h1v1h-1zm-2 1h1v1h-1z"/><path fill="#dbd0b4" d="M18 11h1v2h-1zm1 1h1v2h-1zm1 1h1v2h-1zm1 1h1v2h-1zm-4-1h1v1h-1zm-1 1h3v6h-3zm-2 2h2v6h-2zm1-1h1v1h-1zm0 7h1v1h-1zm1-2h2v1h-2zm0 1h1v1h-1zm3-6h1v1h-1zm0 3h1v1h-1zm0-2h2v2h-2zm-6 1h1v1h-1zm0 3h1v1h-1zm-1-2h2v2h-2z"/><path fill="#38342a" d="M16 23h1v1h-1z"/><path fill="#807a6d" d="M22 16h1v1h-1z"/><path fill="#9a927e" d="M12 19h1v1h-1zm1 1h1v1h-1zm1 1h1v1h-1zm1 1h1v1h-1z"/><path fill="#aea694" d="M12 18h1v1h-1zm1 1h1v1h-1zm1 1h1v1h-1zm1 1h1v1h-1z"/><path fill="#bcb29c" d="M19 13h1v1h-1zm1 1h1v1h-1zm1 1h1v1h-1zm-1 1h1v2h-1zm-1 1h1v2h-1zm-2 2h2v1h-2zm0 1h1v1h-1zm-1 1h1v1h-1z"/><path fill="#c6bca5" d="M18 12h1v1h-1zm-2 2h1v1h-1zm1 1h1v1h-1zm1 1h2v1h-2zm-3 1h1v1h-1zm1 1h2v1h-2z"/><text transform="scale(.1)" x="575" y="200" textLength="500" fill="#333" font-weight="bold">FABRIC</text></g></svg>