<svg xmlns="http://www.w3.org/2000/svg" width="116" height="32" aria-label="NEOFORGE"><path fill="#ecebe6" shape-rendering="crispEdges" d="M0 0h116v32H0z"/><g fill="#fff" text-anchor="middle" font-family="Verdana,Geneva,DejaVu Sans,sans-serif" text-rendering="geometricPrecision" font-size="100"><path fill="#d7742f" d="M13 13h8v8h-8z"/><path fill="#66534d" d="M15 10h1v3h-1zm3 0h1v3h-1zm-4 0h1v1h-1zm5 0h1v1h-1zm-6 1h1v1h-1zm7 0h1v1h-1zm-8 1h1v1h-1zm9 0h1v1h-1zm-8 1h1v1h-1zm7 0h1v1h-1z"/><path fill="#8d7168" d="M14 11h1v1h-1zm5 0h1v1h-1zm-6 1h1v1h-1zm7 0h1v1h-1z"/><path fill="#e7d9d3" d="M14 12h1v1h-1zm5 0h1v1h-1zm-5 4h1v1h-1zm5 0h1v1h-1zm-6 2h1v1h-1zm7 0h1v1h-1z"/><path fill="#f9f4f4" d="M16 21h2v1h-2z"/><path fill="#e7d9d3" d="M16 21h2v1h-2z"/><path fill="#13151a" d="M16 20h2v1h-2zm-2-3h1v2h-1zm5 0h1v2h-1z"/><path fill="#f9f4f4" d="M13 16h1v2h-1zm7 0h1v2h-1zm-5 4h1v2h-1zm3 0h1v2h-1z"/><path fill="#a44e37" d="M16 12h2v1h-2zm-1 1h1v1h-1zm3 0h1v1h-1zm-6 0h1v8h-1zm9 0h1v8h-1zm-10 5h1v1h-1zm11 0h1v1h-1z"/><path fill="#a44e37" d="M12 19h1v2h-1zm8 0h1v2h-1zm-7 2h2v1h-2zm6 0h2v1h-2zm-4 1h4v1h-4z"/><path fill="#bf6134" d="M16 18h2v1h-2zm-3 2h2v1h-2zm6 0h2v1h-2z"/><path fill="#a44e37" d="M12 15h1v4h-1zm9 0h1v4h-1zm-10 1h1v1h-1zm11 0h1v1h-1z"/><path fill="#bf6134" d="M13 14h2v1h-2zm6 0h2v1h-2zm-3-1h2v1h-2z"/><path fill="#e68c37" d="M16 14h2v2h-2zm0 2h1v1h-1z"/><path fill="#c7a3b9" d="M14 13h1v1h-1zm5 0h1v1h-1z"/><text transform="scale(.1)" x="700" y="200" textLength="750" fill="#333" font-weight="bold">NEOFORGE</text></g></svg>